<svg xmlns="http://www.w3.org/2000/svg" width="999.966" height="999.966" viewBox="0 0 2668 2668">
  <defs>
    <style>
      .cls-1 {
        fill-rule: evenodd;
      }
    </style>
  </defs>
  <path id="Color_Fill_1" data-name="Color Fill 1" class="cls-1" d="M1294,23c156.67-1.871,295.71,17.043,413,56,29.77,9.887,57.89,16.382,86,28,27.25,11.26,54.95,22.083,82,34,12.24,5.391,24.86,13.655,37,19,70.1,30.877,132.34,72.974,192,115,14.17,9.984,27.16,22.737,41,33,21.37,15.847,39.94,34.089,61,50,8.81,6.661,15.23,17.373,24,24,16.27,12.3,37.71,33.73,50,50,9.01,11.924,22.93,21,32,33,22.94,30.336,49.97,57.792,72,89,23.03,32.627,45.53,65.971,67,100,14.5,22.981,25.92,47.879,40,71,4.68,7.681,6.84,16,11,24,15.6,30.012,28.16,61.358,42,94,25.61,60.428,42.84,126.911,62,195,8.57,30.45,10.53,62.93,18,94q4.995,42,10,84c2.77,12.53.52,25.79,3,37v27c3.49,16.4,4.78,65.66,1,83v20c-0.05,11.83-.7,26.53-3,37q-1.5,23.505-3,47c-8.21,36.17-7.98,75.15-17,109q-1.005,7.995-2,16c-7.46,26.55-10.42,54.66-19,81-18.87,57.94-34.76,114.77-58,168-152.63,349.58-425.09,609.95-802,735-51.96,17.24-107.14,26.77-163,41l-78,12q-42,4.005-84,8c-15.02,3.32-31.45-.99-45,2h-19c-14.64,0-33.15,1.8-46-1q-22.995-.495-46-1c-20.95-4.66-46.47-2.38-67-7q-19.995-1.995-40-4c-39.11-9.36-79.34-11.28-117-22-36.69-10.45-74.865-19.32-109-32-8.243-3.06-15.877-3.66-24-7-27.7-11.4-56.449-20.97-84-33-12.774-5.58-26.364-13.43-39-19-87.112-38.37-161.91-89.02-234-142-110.619-81.3-204.828-182.31-284-295-15.683-22.32-28.286-45.61-43-69-25.761-40.95-50.811-86.11-71-132-20.091-45.67-38.75-93.02-55-142-8.05-24.26-11.892-47.98-20-73-14.362-44.32-18.7-94.35-30-143-5.415-23.31-2.938-48.22-8-71v-12c-2.924-13.53-2.687-30.88-4-45v-26c-3.69-17.43-2.579-66.6,1-83v-27c4.979-22.36,3.109-48.64,8-70,5.767-25.18,2.887-51.62,9-76,5.288-21.09,6.954-43.74,13-65,17-59.783,29.432-119.575,52-174,21.2-51.125,41.428-103.739,69-149,4.6-7.551,6.417-15.467,11-23,25.827-42.449,50.884-84.9,79-125,21.857-31.172,47.184-59.7,70-90,11.612-15.419,28.412-27.675,40-43,9.124-12.066,20.427-21.43,31-32,13.321-13.318,25.831-27.538,41-39,9.332-7.051,16.626-17.92,26-25,32.082-24.232,61.942-51.715,95-75,88.086-62.045,184.432-112.918,291-157,59.7-24.7,124.817-38.545,191-57l87-16,85-10c10.24-2.256,21.67.045,31-2C1264.01,22.806,1286.91,27.458,1294,23Zm-13,60c-8.28,4.864-38.97.307-51,3-32.13,7.192-66.49,4.109-98,12l-86,17c-69.283,19.717-136.261,37.2-198,64C534.851,314.926,311.744,541.631,176,855c-21.217,48.98-34.836,101.873-52,155-9.168,28.38-12.587,58.94-20,88q-5,33.495-10,67-0.5,8.505-1,17c-11.184,49.49-9.765,108.28-10,167h1c6.363-9.39,21.729-20.99,31-28l11-12c18.2-13.78,32.8-31.24,51-45q5-5.505,10-11c9.478-7.17,18.143-15.11,27-23,4.866-4.33,9.224-11.85,15-15q58.494-13.995,117-28c7.11-4.43,12.358-12.98,19-18,23.153-17.5,42.835-38.52,66-56,8.6-6.49,16.39-21.46,29-23,6.1,5.55,15.175,7.11,23,11,13.007,6.47,26,12.85,40,19,6.564,2.88,11.328,8.05,20,9,4.045-4.72,11.28-5.9,17-9,12.76-6.92,27.1-13.16,40-21,29.7-18.05,61.93-32.16,93-49,9.689-5.25,19.746-10.68,30-16,2.144-1.11,5.714-4.42,8-5,3.818-.97,31.427,2.96,36,4q44,3.495,88,7c5.707,1.21,25.537,5.11,32,3,17.687-5.77,36.023-17.5,53-25,35.776-15.8,70.21-30.245,106-46,20.98-9.235,42.77-21.266,64-30l81-11c5.66-2.575,12.66-7.742,18-11,17.24-10.51,36.22-17.776,53-28,16.83-10.253,35.17-15.788,52-26,11.34-6.878,24.21-11.85,36-19,4.46-2.7,11.72-8.862,17-10,4.69-1.012,24.96,4.7,30,6,23.01,5.947,47.07,6.757,69,12,8.87,2.119,27.63-2.271,35-4l71-8c5.93-1.323,19.8-5.464,26-4,12.07,2.849,26.53,10.29,38,15l33,11q16.005,17,32,34c28.66,28.67,56.34,58.33,85,87,14.49,14.49,28.58,29.44,43,44,3.46,3.49,10.31,15.75,15,14,12.89-3.19,25.35-14.44,36-21,6.04-3.72,11.96-5.29,18-9,5.93-3.64,12.4-9.18,19-12,8.05-3.438,15.9-3.681,24-7,4.19-1.716,30.52-12.114,32-11,7.98,4.624,12.94,12.65,20,18,13.35,10.12,24.63,21.9,38,32,4.6,3.48,8.12,9.85,13,13q54.495,18.495,109,37c3.9,2.52,7.29,7.27,11,10,11.72,8.62,23.26,16.49,35,25,6.15,4.46,11.39,12.26,20,14,4.19-3.81,10.37-4.53,16-7,10.98-4.81,22.98-10.87,34-16,3.7-1.72,14.9-7.34,17-6q54.495,23.505,109,47c6.38,4.33,12.31,12.78,17,19q13.5,13.005,27,26c2.72,3.6,5.28,8.57,9,11,3.85,2.51,8.45,2.3,13,4,10.81,4.04,22.63,7.34,34,12,16.3,6.68,33.92,11.01,51,18,9.42,3.86,19.79,9.37,31,11v-2c-5.17-8.86-2.02-44.91-5-58-8.27-36.31-7.52-73.93-17-109-7.08-26.21-10.54-54.05-19-80-21.01-64.434-40.26-126.447-66-185-37.27-84.768-85.74-161.7-137-233-17.95-24.967-39.48-47.447-58-72-4.38-5.81-11.63-10.22-16-16-13.61-18-30.18-33.189-46-49-15.48-15.48-30.37-31.68-48-45-5.78-4.368-10.19-11.614-16-16-23.24-17.555-44.55-37.777-68-55-43.97-32.3-90.54-61.03-138-90-13.55-8.27-28.31-12.687-42-21-44.14-26.807-97.09-44.528-147-65-51.47-21.112-108.29-31.2-165-47-23.39-6.517-48.69-7.4-72-13-16.32-3.919-31.9-1.194-49-5-13.89-3.092-31.34-1.783-46-5h-17c-10.84-2.356-23.86.633-36-2-8.05-1.746-20.3-1-30-1h-58ZM2542,1584c-16.05-1.81-29.07-10.54-45-13-3.38,31.56-31.52,69.74-74,57-5.48-1.64-12.32-3.93-17-7-24.49-16.05-28.72-43.98-36-78-2.17-10.14-.89-28.43,1-37,2.13-9.63.54-17.25,3-26,6.44-22.87,18.46-46.29,39-55,43.41-18.41,79.7,15.21,81,53,15.97-.84,31.97-7.52,47-11v-2c-5.72-8.28-6.61-23.15-12-32-11.63-19.1-28.15-34.15-50-43-8.12-3.29-18.05-4.06-27-6-18.38-3.99-41.13,1.66-53,6-43.52,15.92-62.64,43.72-75,91-3.25,12.43-8.68,41.09-5,58,3.19,14.62,2.69,29.72,7,43,11.46,35.28,33.06,63.24,66,77,9.03,3.77,19.99,4.81,30,7,8.58,1.88,23.98.56,31-1,6.93-1.54,11.68-.12,18-2,32.45-9.67,51.46-28.25,64-58C2537.63,1598.77,2541.36,1592.51,2542,1584ZM571,1385c-3.134,1.94-7.858.85-12,2q-11,3.495-22,7c-30.162,13.12-50.442,42.15-61,75q-3,15.495-6,31v13c-3.379,15.93-.473,38.49,3,52,11.518,44.83,24.862,74.09,64,91,13.186,5.7,40.349,15,63,10,48.939-10.81,74.876-30.91,92-73,5.623-13.82,6.54-29.96,10-46v-17c0-19.81-.889-37.22-5-52C679.8,1416.15,650.793,1384.56,571,1385Zm-420,4v272h42V1428h4v2c2.3,3.52,1.572,8.31,3,13,3.922,12.88,5.771,27.18,10,41,12.161,39.74,19.953,82.42,32,122,3.773,12.4,7.733,46.02,14,54,6.241,3.93,44.505,1.11,55,1v-1h1c1.565-16.43,8.175-34.26,13-49,8.811-26.92,12.981-54.8,21-81,3.577-11.68,5.679-23.15,9-34,1.453-4.75.214-9.67,4-12,3.4,4.33,9.207,4.43,15,4v173h46V1389H342c-0.4,8.6-3.777,16.81-6,24-4.181,13.53-6.089,27.31-10,40l-17,73c-5.336,17.47-7.647,36.12-13,55-3.236,11.41-7.316,24.53-9,37h-5c-0.771-17.41-6.585-36.64-11-52-9.749-33.91-13.428-66.36-23-100-5.238-18.41-8.472-37.48-14-57-1.751-6.18-4.368-12.53-5-20H151Zm601,0v272h44c0.046-65.74-.587-133.9-1-198,4.693,0.37,12.4-2.17,15-1,8.648,9.79,14.289,32.07,20,45,15.358,34.77,34.693,69.35,50,104,4.932,11.17,10.393,21.56,15,32,1.581,3.58,5.517,16.63,8,18h58V1389H917c-0.043,53.2.933,108.39,1,160-13.868-.15-9.743,4.86-18,8-2.285-9.66-8.26-19.43-12-28-13.661-31.3-28.708-60.8-42-91-5.678-12.9-10.8-25.03-17-37-0.973-1.88-3.935-11.25-5-12H752Zm332,272h48V1427h81v-38H1004v2c-2.85,4.39-1.12,30.65,0,36h79c1.88,5.72,1,15.63,1,23v211Zm271-272v272c80.47,0.75,167.69,12.14,192-45,9.02-21.19,8.57-52.34-4-70-7.52-10.56-21.17-18.88-34-24-5.07-2.02-11.72-1.2-16-4-0.8-1.02-.35-0.27-1-2,25.93-2.98,45.36-20.64,52-43,7.45-25.09-4.31-55.56-17-65C1491.76,1381.77,1416.26,1388.59,1355,1389Zm248,0v272h176v-38H1652v-2c-2.18-3.52-1-12.69-1-18V1389h-48Zm262,192h83v1h1q10.995,39.495,22,79h50q-41.49-135.99-83-272h-58q-41.49,135.99-83,272h45C1847.57,1634.01,1860.92,1608.82,1865,1581Zm196-192v272h44c0.04-68.59-.96-138.98-1-206,6.16-.05,7.53-1.74,12-3,4.03,18.16,15.84,35.86,23,52,16.19,36.46,34.24,71.38,50,107,4.94,11.16,10.39,21.56,15,32,1.59,3.6,5.5,16.61,8,18h58V1389h-44c-0.09,66.34,1.91,133.29,2,197-4.11.27-4.76,1.14-8,2-2.98-14.83-10.52-29.09-16-42-5-11.78-7.9-22.42-13-34-10.81-24.56-25.21-49.47-36-74-5.68-12.9-10.8-25.03-17-37-0.97-1.88-3.94-11.25-5-12h-72Zm183,462,46-12v-4c-4.36-5.62-5.24-13.84-9-20-6.74-11.05-17.05-23.2-28-30-50.6-31.41-129.04-10.74-146,36-3.28,9.04-4.48,25.2-2,36,1.9,8.27,1.11,14.12,4,21,9.05,21.56,31.29,34.1,53,43,31.72,13.01,76.5,11.76,85,48,8.39,35.8-32.08,54.87-65,46-26.05-7.02-33.72-24-43-48-7.46,1.39-43.67,12.14-45,17q4.5,10.995,9,22a101.72,101.72,0,0,0,33,33c12.87,7.82,26.38,8.15,44,12,50.35,10.99,97.09-17.2,110-48,2.81-6.69,4.27-16.24,5-24,5.99-64.1-44.89-76.49-89-91-22.99-7.57-47.26-10.52-54-34-9.36-32.62,25.04-55.74,57-46C2227.39,1813.6,2241.39,1829.91,2244,1851ZM393,1775v272h47v-95c4.117-3.17,6.829-7.8,10-12,6.137-8.13,15.265-14.29,21-23h1v1c9.138,9.42,13.914,23.6,21,35,12.693,20.42,26.287,41.6,39,62,3.122,5.01,15,30.02,18,32h54v-2c-8.165-8.41-12.615-20.88-19-31-16.65-26.39-33.1-53.19-50-80-7.622-12.09-15.139-24.52-23-37-3-4.76-7.719-8.43-9-15,9.718-6.6,17.914-19.61,25-29,11.758-15.58,28.239-28.42,40-44,8.132-10.78,17.349-24.83,28-33v-1H542c-4.979,7.79-12.585,13.79-18,21-15.136,20.17-33.094,38.07-48,58-8.708,11.64-24.59,35.5-36,43V1775H393Zm251,0v272H820v-38H693v-2c-2.177-3.52-1-12.69-1-18V1775H644Zm218,0v272h48V1775H862Zm113,0v272h42V1814h4v2c2.3,3.52,1.57,8.31,3,13,3.92,12.88,5.77,27.18,10,41,12.16,39.74,19.95,82.42,32,122,3.77,12.4,7.73,46.02,14,54,6.24,3.93,44.5,1.11,55,1v-1h1c1.69-17.83,9-36.81,14-53,10.62-34.36,16.2-69.84,27-103,2.84-8.73,6.48-41.59,12-45,2.08,2.74,4.37,3.7,9,4v198h46V1775h-78c-0.4,8.6-3.78,16.81-6,24-4.18,13.53-6.09,27.31-10,40q-8.505,36.495-17,73c-5.34,17.47-7.65,36.12-13,55-3.24,11.41-7.32,24.53-9,37h-5c-0.77-17.41-6.59-36.64-11-52-9.75-33.91-13.43-66.36-23-100-5.24-18.41-8.47-37.48-14-57-1.75-6.18-4.37-12.53-5-20H975Zm333,0v272h42V1830h8c1.8,18.83,8.74,38.86,14,56,10.06,32.75,15.3,66.27,25,98,4.89,16.01,7.39,31.86,12,47,1.65,5.4.98,11.16,4,15,6.24,3.93,44.5,1.11,55,1v-1h1c1.57-16.43,8.16-34.27,13-49,7.56-23.02,10.78-46.95,18-69q12.495-51,25-102a36.315,36.315,0,0,0,7,1c0.04,71.76-.96,146.7-1,220h46V1775h-78c-0.4,8.6-3.78,16.81-6,24-4.18,13.53-6.09,27.31-10,40q-8.505,36.495-17,73c-5.34,17.47-7.65,36.12-13,55-3.24,11.41-7.32,24.53-9,37h-5c-0.77-17.41-6.59-36.64-11-52-9.75-33.91-13.43-66.36-23-100-5.24-18.41-8.47-37.48-14-57-1.75-6.18-4.37-12.53-5-20h-78Zm333,0v272h183v-37c-11.01-3.63-29.99-1-43-1h-92v-87h99c3.21-9.58,1.08-26.49,1-38H1689v-71h132v-38H1641Zm227,0v272h47V1925h50c12.93,29.7,28.02,59.61,41,89,2.23,5.05,11.12,31.31,14,33h51v-2c-6.76-7.54-9.2-19.61-14-29-11.35-22.18-22.34-45.84-34-68-2.15-4.07-13.69-29.25-13-30,4.27-3.26,9.97-3.38,15-6,8.82-4.59,19.4-13.01,25-21,5.55-7.92,9.51-18.28,12-29,4.3-18.55-2.18-39.96-9-51C2023.79,1763.71,1943.1,1774.64,1868,1775Z"/>
</svg>
